<svg xmlns="http://www.w3.org/2000/svg" viewBox="0 0 1000 460" width="100%" height="100%">
  <defs>
    
    <!-- Gradients -->
    <linearGradient id="bgGrad" x1="0%" y1="0%" x2="100%" y2="100%">
      <stop offset="0%" stop-color="#050811"/>
      <stop offset="50%" stop-color="#070b16"/>
      <stop offset="100%" stop-color="#0b1329"/>
    </linearGradient>

    <linearGradient id="cardGrad" x1="0%" y1="0%" x2="100%" y2="100%">
      <stop offset="0%" stop-color="#101935" stop-opacity="0.85"/>
      <stop offset="100%" stop-color="#090e1f" stop-opacity="0.9"/>
    </linearGradient>

    <linearGradient id="glassBorder" x1="0%" y1="0%" x2="100%" y2="100%">
      <stop offset="0%" stop-color="#247bff" stop-opacity="0.6"/>
      <stop offset="50%" stop-color="#ffffff" stop-opacity="0.15"/>
      <stop offset="100%" stop-color="#ff354f" stop-opacity="0.5"/>
    </linearGradient>

    <linearGradient id="blueGlowGrad" x1="0%" y1="0%" x2="100%" y2="0%">
      <stop offset="0%" stop-color="#247bff"/>
      <stop offset="100%" stop-color="#60a5fa"/>
    </linearGradient>

    <linearGradient id="crimsonGlowGrad" x1="0%" y1="0%" x2="100%" y2="0%">
      <stop offset="0%" stop-color="#ff354f"/>
      <stop offset="100%" stop-color="#ff7b91"/>
    </linearGradient>

    <!-- Filters -->
    <filter id="glowBlue" x="-20%" y="-20%" width="140%" height="140%">
      <feGaussianBlur stdDeviation="8" result="blur"/>
      <feComposite in="SourceGraphic" in2="blur" operator="over"/>
    </filter>

    <filter id="glowCrimson" x="-20%" y="-20%" width="140%" height="140%">
      <feGaussianBlur stdDeviation="7" result="blur"/>
      <feComposite in="SourceGraphic" in2="blur" operator="over"/>
    </filter>

    <filter id="cardShadow" x="-10%" y="-10%" width="130%" height="130%">
      <feDropShadow dx="0" dy="12" stdDeviation="16" flood-color="#000000" flood-opacity="0.6"/>
    </filter>

    <!-- Grid Pattern -->
    <pattern id="futuristicGrid" width="40" height="40" patternUnits="userSpaceOnUse">
      <path d="M 40 0 L 0 0 0 40" fill="none" stroke="#247bff" stroke-width="0.75" stroke-opacity="0.12"/>
      <circle cx="40" cy="0" r="1.2" fill="#247bff" fill-opacity="0.25"/>
    </pattern>

    <pattern id="dotPattern" width="20" height="20" patternUnits="userSpaceOnUse">
      <circle cx="2" cy="2" r="1" fill="#f5f7ff" fill-opacity="0.08"/>
    </pattern>

    <style>
      
    /* Deep Futuristic Keyframes */
    @keyframes pulseGlow {
      0%, 100% { opacity: 0.45; filter: drop-shadow(0 0 10px rgba(36,123,255,0.4)); }
      50% { opacity: 0.95; filter: drop-shadow(0 0 24px rgba(36,123,255,0.85)); }
    }
    @keyframes crimsonPulse {
      0%, 100% { opacity: 0.4; }
      50% { opacity: 0.85; filter: drop-shadow(0 0 16px rgba(255,53,79,0.8)); }
    }
    @keyframes subtleFloat {
      0%, 100% { transform: translateY(0px); }
      50% { transform: translateY(-6px); }
    }
    @keyframes scanline {
      0% { transform: translateY(0px); opacity: 0; }
      15% { opacity: 0.7; }
      85% { opacity: 0.7; }
      100% { transform: translateY(460px); opacity: 0; }
    }
    @keyframes ringSpinCW {
      from { transform: rotate(0deg); }
      to { transform: rotate(360deg); }
    }
    @keyframes ringSpinCCW {
      from { transform: rotate(360deg); }
      to { transform: rotate(0deg); }
    }
    @keyframes orbitSpin1 {
      0% { transform: rotate(0deg); }
      100% { transform: rotate(360deg); }
    }
    @keyframes orbitCounterSpin1 {
      0% { transform: rotate(0deg); }
      100% { transform: rotate(-360deg); }
    }
    @keyframes orbitSpin2 {
      0% { transform: rotate(360deg); }
      100% { transform: rotate(0deg); }
    }
    @keyframes orbitCounterSpin2 {
      0% { transform: rotate(-360deg); }
      100% { transform: rotate(0deg); }
    }
    @keyframes orbitSpin3 {
      0% { transform: rotate(0deg); }
      100% { transform: rotate(360deg); }
    }
    @keyframes orbitCounterSpin3 {
      0% { transform: rotate(0deg); }
      100% { transform: rotate(-360deg); }
    }
    @keyframes idSwing {
      0% { transform: rotate(-6deg); }
      15% { transform: rotate(5deg); }
      30% { transform: rotate(-3.5deg); }
      45% { transform: rotate(2.2deg); }
      60% { transform: rotate(-1.7deg); }
      75% { transform: rotate(1.7deg); }
      90% { transform: rotate(-1.7deg); }
      100% { transform: rotate(1.7deg); }
    }
    @keyframes foilSweep {
      0% { transform: translateX(-180%) skewX(-20deg); opacity: 0; }
      20% { opacity: 0.45; }
      40% { transform: translateX(250%) skewX(-20deg); opacity: 0; }
      100% { transform: translateX(250%) skewX(-20deg); opacity: 0; }
    }
    @keyframes pointPulse {
      0%, 100% { transform: translateX(0px); }
      50% { transform: translateX(8px); }
    }
    @keyframes radarSweep {
      from { transform: rotate(0deg); }
      to { transform: rotate(360deg); }
    }
    @media (prefers-reduced-motion: reduce) {
      *, ::before, ::after {
        animation-duration: 0.01ms !important;
        animation-iteration-count: 1 !important;
      }
    }

      .leetcode-orbit {
        transform-origin: 260px 240px;
        animation: ringSpinCW 30s infinite linear;
      }
      .leetcode-pulse {
        animation: pulseGlow 3s infinite ease-in-out;
      }
    </style>
  </defs>

  <rect width="1000" height="460" fill="url(#bgGrad)"/>
  <rect width="1000" height="460" fill="url(#futuristicGrid)"/>

  
    <g transform="translate(60, 50)">
      <rect x="0" y="0" width="8" height="38" rx="4" fill="#ff354f"/>
      <rect x="0" y="0" width="8" height="38" rx="4" fill="#247bff" opacity="0.6" filter="url(#glowBlue)"/>
      <text x="24" y="14" fill="#247bff" font-size="12" font-weight="700" letter-spacing="3" font-family="-apple-system, BlinkMacSystemFont, 'Segoe UI', Roboto, sans-serif">ALGORITHMIC INTELLIGENCE</text>
      <text x="24" y="38" fill="#f5f7ff" font-size="28" font-weight="800" letter-spacing="1" font-family="-apple-system, BlinkMacSystemFont, 'Segoe UI', Roboto, sans-serif">LEETCODE // DSA &amp; PROBLEM SOLVING</text>
      <text x="24" y="60" fill="#8c9dbd" font-size="13" font-family="-apple-system, BlinkMacSystemFont, 'Segoe UI', Roboto, sans-serif">Structured problem solving, complexity optimization &amp; competitive programming</text>
    </g>
  

  <!-- Left Side: Algorithmic Orbit Telemetry (x=60, w=400) -->
  <g transform="translate(60, 130)">
    
    <g class="hud-panel">
      <!-- Glow Underlay -->
      <rect x="0" y="0" width="400" height="290" rx="16" fill="#0d1630" fill-opacity="0.5" filter="url(#cardShadow)"/>
      <!-- Main Glass Body -->
      <rect x="0" y="0" width="400" height="290" rx="16" fill="url(#cardGrad)" stroke="#ffa116" stroke-width="1.2"/>
      <!-- HUD Corner Accents -->
      <path d="M 0 16 L 0 0 L 16 0" fill="none" stroke="#247bff" stroke-width="2.5" stroke-linecap="round"/>
      <path d="M 384 0 L 400 0 L 400 16" fill="none" stroke="#247bff" stroke-width="2.5" stroke-linecap="round"/>
      <path d="M 0 274 L 0 290 L 16 290" fill="none" stroke="#ff354f" stroke-width="2.5" stroke-linecap="round"/>
      <path d="M 384 290 L 400 290 L 400 274" fill="none" stroke="#247bff" stroke-width="2.5" stroke-linecap="round"/>
    </g>
  
    
    <!-- Central LeetCode Hologram Orb -->
    <g transform="translate(200, 145)">
      <!-- Rotating outer ring -->
      <g class="leetcode-orbit">
        <circle cx="0" cy="0" r="95" fill="none" stroke="#ffa116" stroke-width="1.2" stroke-dasharray="10,6" opacity="0.6"/>
        <circle cx="95" cy="0" r="4.5" fill="#ffa116" filter="url(#glowBlue)"/>
        <circle cx="-95" cy="0" r="3.5" fill="#f5f7ff"/>
      </g>
      <circle cx="0" cy="0" r="65" fill="#0d1838" stroke="#ffa116" stroke-width="2" filter="url(#cardShadow)"/>
      <g transform="translate(-24, -24) scale(2)">
        <svg width="24" height="24" viewBox="0 0 24 24"><path fill="#ffa116" d="M13.5 3.3a1.5 1.5 0 0 1 2.1.3l5.1 6.1a1.5 1.5 0 0 1-.2 2.1l-6.8 5.4a1.5 1.5 0 0 1-2.1-.3l-5-6.1a1.5 1.5 0 0 1 .2-2.1l6.7-5.4zm-1.8 14.5h6.3a1 1 0 1 1 0 2h-6.3a1 1 0 1 1 0-2zM4.5 12a4 4 0 0 1 2.5-3.7 1 1 0 1 1 .8 1.8 2 2 0 0 0-1.3 1.9 2 2 0 0 0 2 2h4.5a1 1 0 1 1 0 2H8.5a4 4 0 0 1-4-4z"/></svg>
      </g>
    </g>

    <!-- Corner Tag -->
    <text x="24" y="32" fill="#ffa116" font-size="11" font-weight="800" letter-spacing="2">DSA ENGINE</text>
    <text x="24" y="265" fill="#8c9dbd" font-size="11" font-family="-apple-system, BlinkMacSystemFont, 'Segoe UI', Roboto, sans-serif">ORBITAL RESOLVER // LOGIC MATRIX</text>
  </g>

  <!-- Right Side: Focus Pillars & Profile Identity (x=480, w=460) -->
  <g transform="translate(480, 130)">
    
    <g class="hud-panel">
      <!-- Glow Underlay -->
      <rect x="0" y="0" width="460" height="290" rx="16" fill="#0d1630" fill-opacity="0.5" filter="url(#cardShadow)"/>
      <!-- Main Glass Body -->
      <rect x="0" y="0" width="460" height="290" rx="16" fill="url(#cardGrad)" stroke="url(#glassBorder)" stroke-width="1.2"/>
      <!-- HUD Corner Accents -->
      <path d="M 0 16 L 0 0 L 16 0" fill="none" stroke="#247bff" stroke-width="2.5" stroke-linecap="round"/>
      <path d="M 444 0 L 460 0 L 460 16" fill="none" stroke="#247bff" stroke-width="2.5" stroke-linecap="round"/>
      <path d="M 0 274 L 0 290 L 16 290" fill="none" stroke="#ff354f" stroke-width="2.5" stroke-linecap="round"/>
      <path d="M 444 290 L 460 290 L 460 274" fill="none" stroke="#247bff" stroke-width="2.5" stroke-linecap="round"/>
    </g>
  

    <g transform="translate(28, 28)">
      <text x="0" y="0" fill="#ffa116" font-size="11" font-weight="800" letter-spacing="2">PROFILE IDENTITY</text>
      <text x="0" y="24" fill="#f5f7ff" font-size="22" font-weight="900">gowtham-cr</text>
      <text x="0" y="46" fill="#8c9dbd" font-size="12">leetcode.com/u/gowtham-cr</text>
      
      <line x1="0" y1="62" x2="404" y2="62" stroke="rgba(255,161,22,0.3)" stroke-width="1"/>

      <!-- DSA Problem-Solving Pillars -->
      <g transform="translate(0, 80)">
        <!-- Pillar 1 -->
        <g transform="translate(0, 0)">
          <rect x="0" y="0" width="195" height="58" rx="10" fill="#0d1736" stroke="#247bff" stroke-width="0.8"/>
          <text x="14" y="22" fill="#60a5fa" font-size="12" font-weight="700">● Data Structures</text>
          <text x="14" y="42" fill="#8c9dbd" font-size="10.5">Arrays, Trees, Graphs, Heaps</text>
        </g>
        <!-- Pillar 2 -->
        <g transform="translate(208, 0)">
          <rect x="0" y="0" width="195" height="58" rx="10" fill="#0d1736" stroke="#ff354f" stroke-width="0.8"/>
          <text x="14" y="22" fill="#ff7b91" font-size="12" font-weight="700">● Algorithms</text>
          <text x="14" y="42" fill="#8c9dbd" font-size="10.5">DP, Two Pointers, BFS/DFS</text>
        </g>
        <!-- Pillar 3 -->
        <g transform="translate(0, 68)">
          <rect x="0" y="0" width="195" height="58" rx="10" fill="#0d1736" stroke="#ffa116" stroke-width="0.8"/>
          <text x="14" y="22" fill="#ffa116" font-size="12" font-weight="700">● Language Mastery</text>
          <text x="14" y="42" fill="#8c9dbd" font-size="10.5">Java Core &amp; C++ STL</text>
        </g>
        <!-- Pillar 4 -->
        <g transform="translate(208, 68)">
          <rect x="0" y="0" width="195" height="58" rx="10" fill="#0d1736" stroke="#00e676" stroke-width="0.8"/>
          <text x="14" y="22" fill="#00e676" font-size="12" font-weight="700">● Optimization</text>
          <text x="14" y="42" fill="#8c9dbd" font-size="10.5">Time &amp; Space Complexity</text>
        </g>
      </g>
    </g>
  </g>
</svg>